{
    "asset": {
        "version": "2.0",
        "generator": "Open Asset Import Library (assimp v5.4.0)"
    },
    "extensionsUsed": [
        "KHR_materials_volume",
        "FB_ngon_encoding"
    ],
    "accessors": [
        {
            "bufferView": 0,
            "byteOffset": 0,
            "componentType": 5126,
            "count": 125332,
            "type": "VEC3",
            "max": [
                2000.0,
                2000.0,
                2000.0
            ],
            "min": [
                0.0,
                0.0,
                0.0
            ]
        },
        {
            "bufferView": 1,
            "byteOffset": 0,
            "componentType": 5126,
            "count": 125332,
            "type": "VEC3",
            "max": [
                1.0,
                1.0,
                1.0
            ],
            "min": [
                -1.0,
                -1.0,
                -1.0
            ]
        },
        {
            "bufferView": 2,
            "byteOffset": 0,
            "componentType": 5125,
            "count": 187290,
            "type": "SCALAR",
            "max": [
                125331
            ],
            "min": [
                0
            ]
        }
    ],
    "buffers": [
        {
            "byteLength": 3757128,
            "uri": "3dpea.bin"
        }
    ],
    "bufferViews": [
        {
            "buffer": 0,
            "byteOffset": 0,
            "byteLength": 1503984,
            "target": 34962
        },
        {
            "buffer": 0,
            "byteOffset": 1503984,
            "byteLength": 1503984,
            "target": 34962
        },
        {
            "buffer": 0,
            "byteOffset": 3007968,
            "byteLength": 749160,
            "target": 34963
        }
    ],
    "materials": [
        {
            "name": "DefaultMaterial",
            "pbrMetallicRoughness": {
                "metallicFactor": 0.0
            }
        }
    ],
    "meshes": [
        {
            "name": "meshes[0]",
            "primitives": [
                {
                    "mode": 4,
                    "material": 0,
                    "indices": 2,
                    "attributes": {
                        "POSITION": 0,
                        "NORMAL": 1
                    }
                }
            ]
        }
    ],
    "nodes": [
        {
            "name": "3dpea.com_M-6829-1234-01-A_Object",
            "children": [
                1
            ]
        },
        {
            "name": "<STL_BINARY>",
            "children": [
                2
            ],
            "extras": {
                "name": "<STL_BINARY>"
            }
        },
        {
            "name": "node",
            "mesh": 0,
            "extras": {
                "name": "node"
            }
        }
    ],
    "scenes": [
        {
            "nodes": [
                0
            ]
        }
    ],
    "scene": 0
}